<mxfile host="app.diagrams.net" modified="2023-10-12T03:46:05.162Z" agent="Mozilla/5.0 (Windows NT 10.0; WOW64) AppleWebKit/537.36 (KHTML, like Gecko) Chrome/94.0.4606.71 Safari/537.36 Core/1.94.178.400 QQBrowser/11.2.5170.400" etag="0fbWmRBkojnnkSwkKdkR" version="22.0.4" type="github">
  <diagram name="第 1 页" id="OdXjYWqIKgf3eFuhK5J9">
    <mxGraphModel dx="1434" dy="765" grid="1" gridSize="10" guides="1" tooltips="1" connect="1" arrows="1" fold="1" page="1" pageScale="1" pageWidth="827" pageHeight="1169" math="0" shadow="0">
      <root>
        <mxCell id="0" />
        <mxCell id="1" parent="0" />
        <mxCell id="rL_6neAAnhcVu6KtvDzb-3" style="edgeStyle=orthogonalEdgeStyle;rounded=0;orthogonalLoop=1;jettySize=auto;html=1;exitX=0.5;exitY=1;exitDx=0;exitDy=0;exitPerimeter=0;entryX=0.5;entryY=0;entryDx=0;entryDy=0;" edge="1" parent="1" source="rL_6neAAnhcVu6KtvDzb-1" target="rL_6neAAnhcVu6KtvDzb-2">
          <mxGeometry relative="1" as="geometry" />
        </mxCell>
        <mxCell id="rL_6neAAnhcVu6KtvDzb-1" value="用户" style="strokeWidth=2;html=1;shape=mxgraph.flowchart.start_1;whiteSpace=wrap;" vertex="1" parent="1">
          <mxGeometry x="330" y="80" width="100" height="40" as="geometry" />
        </mxCell>
        <mxCell id="rL_6neAAnhcVu6KtvDzb-5" style="edgeStyle=orthogonalEdgeStyle;rounded=0;orthogonalLoop=1;jettySize=auto;html=1;exitX=0.5;exitY=1;exitDx=0;exitDy=0;entryX=0.5;entryY=0;entryDx=0;entryDy=0;" edge="1" parent="1" source="rL_6neAAnhcVu6KtvDzb-2" target="rL_6neAAnhcVu6KtvDzb-4">
          <mxGeometry relative="1" as="geometry" />
        </mxCell>
        <mxCell id="rL_6neAAnhcVu6KtvDzb-2" value="1、授权&lt;br&gt;（openid换取token）" style="rounded=1;whiteSpace=wrap;html=1;absoluteArcSize=1;arcSize=14;strokeWidth=2;" vertex="1" parent="1">
          <mxGeometry x="290" y="160" width="180" height="50" as="geometry" />
        </mxCell>
        <mxCell id="rL_6neAAnhcVu6KtvDzb-8" style="edgeStyle=orthogonalEdgeStyle;rounded=0;orthogonalLoop=1;jettySize=auto;html=1;exitX=0.5;exitY=1;exitDx=0;exitDy=0;entryX=0.5;entryY=0;entryDx=0;entryDy=0;" edge="1" parent="1" source="rL_6neAAnhcVu6KtvDzb-4" target="rL_6neAAnhcVu6KtvDzb-6">
          <mxGeometry relative="1" as="geometry" />
        </mxCell>
        <mxCell id="rL_6neAAnhcVu6KtvDzb-13" style="edgeStyle=orthogonalEdgeStyle;rounded=0;orthogonalLoop=1;jettySize=auto;html=1;exitX=0.5;exitY=1;exitDx=0;exitDy=0;entryX=0.5;entryY=0;entryDx=0;entryDy=0;" edge="1" parent="1" source="rL_6neAAnhcVu6KtvDzb-4" target="rL_6neAAnhcVu6KtvDzb-11">
          <mxGeometry relative="1" as="geometry" />
        </mxCell>
        <mxCell id="rL_6neAAnhcVu6KtvDzb-14" style="edgeStyle=orthogonalEdgeStyle;rounded=0;orthogonalLoop=1;jettySize=auto;html=1;exitX=0.5;exitY=1;exitDx=0;exitDy=0;entryX=0.5;entryY=0;entryDx=0;entryDy=0;" edge="1" parent="1" source="rL_6neAAnhcVu6KtvDzb-4" target="rL_6neAAnhcVu6KtvDzb-12">
          <mxGeometry relative="1" as="geometry" />
        </mxCell>
        <mxCell id="rL_6neAAnhcVu6KtvDzb-4" value="2、选择院区" style="rounded=1;whiteSpace=wrap;html=1;absoluteArcSize=1;arcSize=14;strokeWidth=2;" vertex="1" parent="1">
          <mxGeometry x="315" y="250" width="130" height="40" as="geometry" />
        </mxCell>
        <mxCell id="rL_6neAAnhcVu6KtvDzb-16" style="edgeStyle=orthogonalEdgeStyle;rounded=0;orthogonalLoop=1;jettySize=auto;html=1;exitX=0.5;exitY=1;exitDx=0;exitDy=0;entryX=0.5;entryY=0;entryDx=0;entryDy=0;" edge="1" parent="1" source="rL_6neAAnhcVu6KtvDzb-6" target="rL_6neAAnhcVu6KtvDzb-15">
          <mxGeometry relative="1" as="geometry" />
        </mxCell>
        <mxCell id="rL_6neAAnhcVu6KtvDzb-6" value="3、搜索科室" style="rounded=1;whiteSpace=wrap;html=1;absoluteArcSize=1;arcSize=14;strokeWidth=2;" vertex="1" parent="1">
          <mxGeometry x="315" y="340" width="130" height="40" as="geometry" />
        </mxCell>
        <mxCell id="rL_6neAAnhcVu6KtvDzb-11" value="3、选择科室" style="rounded=1;whiteSpace=wrap;html=1;absoluteArcSize=1;arcSize=14;strokeWidth=2;" vertex="1" parent="1">
          <mxGeometry x="140" y="340" width="130" height="40" as="geometry" />
        </mxCell>
        <mxCell id="rL_6neAAnhcVu6KtvDzb-19" style="edgeStyle=orthogonalEdgeStyle;rounded=0;orthogonalLoop=1;jettySize=auto;html=1;exitX=0.5;exitY=1;exitDx=0;exitDy=0;entryX=1;entryY=0.5;entryDx=0;entryDy=0;" edge="1" parent="1" source="rL_6neAAnhcVu6KtvDzb-12" target="rL_6neAAnhcVu6KtvDzb-17">
          <mxGeometry relative="1" as="geometry" />
        </mxCell>
        <mxCell id="rL_6neAAnhcVu6KtvDzb-12" value="3、搜索医生" style="rounded=1;whiteSpace=wrap;html=1;absoluteArcSize=1;arcSize=14;strokeWidth=2;" vertex="1" parent="1">
          <mxGeometry x="490" y="340" width="130" height="40" as="geometry" />
        </mxCell>
        <mxCell id="rL_6neAAnhcVu6KtvDzb-18" style="edgeStyle=orthogonalEdgeStyle;rounded=0;orthogonalLoop=1;jettySize=auto;html=1;exitX=0.5;exitY=1;exitDx=0;exitDy=0;entryX=0.5;entryY=0;entryDx=0;entryDy=0;" edge="1" parent="1" source="rL_6neAAnhcVu6KtvDzb-15" target="rL_6neAAnhcVu6KtvDzb-17">
          <mxGeometry relative="1" as="geometry" />
        </mxCell>
        <mxCell id="rL_6neAAnhcVu6KtvDzb-15" value="4、号源列表&lt;br&gt;选择医生" style="rounded=1;whiteSpace=wrap;html=1;absoluteArcSize=1;arcSize=14;strokeWidth=2;" vertex="1" parent="1">
          <mxGeometry x="315" y="410" width="130" height="40" as="geometry" />
        </mxCell>
        <mxCell id="rL_6neAAnhcVu6KtvDzb-21" style="edgeStyle=orthogonalEdgeStyle;rounded=0;orthogonalLoop=1;jettySize=auto;html=1;exitX=0.5;exitY=1;exitDx=0;exitDy=0;" edge="1" parent="1" source="rL_6neAAnhcVu6KtvDzb-17" target="rL_6neAAnhcVu6KtvDzb-20">
          <mxGeometry relative="1" as="geometry" />
        </mxCell>
        <mxCell id="rL_6neAAnhcVu6KtvDzb-17" value="5、号源详情&lt;br&gt;选择时间" style="rounded=1;whiteSpace=wrap;html=1;absoluteArcSize=1;arcSize=14;strokeWidth=2;" vertex="1" parent="1">
          <mxGeometry x="315" y="480" width="130" height="40" as="geometry" />
        </mxCell>
        <mxCell id="rL_6neAAnhcVu6KtvDzb-23" style="edgeStyle=orthogonalEdgeStyle;rounded=0;orthogonalLoop=1;jettySize=auto;html=1;exitX=0.5;exitY=1;exitDx=0;exitDy=0;entryX=0.5;entryY=0;entryDx=0;entryDy=0;" edge="1" parent="1" source="rL_6neAAnhcVu6KtvDzb-20" target="rL_6neAAnhcVu6KtvDzb-22">
          <mxGeometry relative="1" as="geometry" />
        </mxCell>
        <mxCell id="rL_6neAAnhcVu6KtvDzb-20" value="6、选就诊人" style="rounded=1;whiteSpace=wrap;html=1;absoluteArcSize=1;arcSize=14;strokeWidth=2;" vertex="1" parent="1">
          <mxGeometry x="315" y="545" width="130" height="40" as="geometry" />
        </mxCell>
        <mxCell id="rL_6neAAnhcVu6KtvDzb-25" style="edgeStyle=orthogonalEdgeStyle;rounded=0;orthogonalLoop=1;jettySize=auto;html=1;exitX=0.5;exitY=1;exitDx=0;exitDy=0;entryX=0.5;entryY=0;entryDx=0;entryDy=0;" edge="1" parent="1" source="rL_6neAAnhcVu6KtvDzb-22" target="rL_6neAAnhcVu6KtvDzb-24">
          <mxGeometry relative="1" as="geometry" />
        </mxCell>
        <mxCell id="rL_6neAAnhcVu6KtvDzb-22" value="7、图形验证码" style="rounded=1;whiteSpace=wrap;html=1;absoluteArcSize=1;arcSize=14;strokeWidth=2;" vertex="1" parent="1">
          <mxGeometry x="315" y="610" width="130" height="40" as="geometry" />
        </mxCell>
        <mxCell id="rL_6neAAnhcVu6KtvDzb-24" value="8、锁号&lt;br&gt;9、获取支付链接&lt;br&gt;10、支付" style="rounded=1;whiteSpace=wrap;html=1;absoluteArcSize=1;arcSize=14;strokeWidth=2;" vertex="1" parent="1">
          <mxGeometry x="315" y="679" width="130" height="51" as="geometry" />
        </mxCell>
        <mxCell id="rL_6neAAnhcVu6KtvDzb-27" value="结束" style="strokeWidth=2;html=1;shape=mxgraph.flowchart.start_1;whiteSpace=wrap;" vertex="1" parent="1">
          <mxGeometry x="330" y="760" width="100" height="50" as="geometry" />
        </mxCell>
        <mxCell id="rL_6neAAnhcVu6KtvDzb-29" style="edgeStyle=orthogonalEdgeStyle;rounded=0;orthogonalLoop=1;jettySize=auto;html=1;exitX=0.5;exitY=1;exitDx=0;exitDy=0;entryX=0.5;entryY=0;entryDx=0;entryDy=0;entryPerimeter=0;" edge="1" parent="1" source="rL_6neAAnhcVu6KtvDzb-24" target="rL_6neAAnhcVu6KtvDzb-27">
          <mxGeometry relative="1" as="geometry" />
        </mxCell>
      </root>
    </mxGraphModel>
  </diagram>
</mxfile>
